<?xml version="1.0" encoding="utf-8"?>
<!-- Generator: Adobe Illustrator 23.0.1, SVG Export Plug-In . SVG Version: 6.00 Build 0)  -->
<svg version="1.1" id="Layer_1" xmlns="http://www.w3.org/2000/svg" xmlns:xlink="http://www.w3.org/1999/xlink" x="0px" y="0px"
	 viewBox="0 0 104 23.8" style="enable-background:new 0 0 104 23.8;" xml:space="preserve">
<style type="text/css">
	.st0{fill:#FFFFFF;}
	.st1{fill:#ED1C26;}
	.st2{fill:#A1348C;}
	.st3{fill:#01509D;}
</style>
<g>
	<g>
		<path class="st0" d="M5.9,20l0.8,2.2h0.1L7.6,20l5-12.8h0.9L7.1,23.5l0,0H6.3L0,7.2h0.9L5.9,20z"/>
		<path class="st0" d="M17.7,2.1h-0.8V0h0.8V2.1z M17.7,23.5h-0.8V7.2h0.8V23.5z"/>
		<path class="st0" d="M24,23.5h-0.8V0H24V23.5z"/>
		<path class="st0" d="M30.4,23.5h-0.8V0h0.8V23.5z"/>
		<path class="st0" d="M45.7,19.5c0-0.9-0.4-1.6-1.1-2.4c-0.7-0.7-2-1.3-3.9-1.7c-1.9-0.4-3.3-0.9-4.2-1.6c-0.9-0.6-1.3-1.6-1.3-2.9
			c0-1.2,0.5-2.1,1.5-2.9s2.3-1.2,4-1.2c1.8,0,3.2,0.4,4.3,1.3c1,0.8,1.5,1.9,1.5,3.3l0,0.1h-0.7c0-1.1-0.5-2-1.3-2.7
			c-0.9-0.8-2.1-1.1-3.7-1.1c-1.5,0-2.7,0.3-3.5,1c-0.8,0.7-1.2,1.4-1.2,2.3c0,0.9,0.3,1.6,1,2.2c0.7,0.6,2,1.1,4,1.6
			c1.8,0.4,3.2,1,4.1,1.7c0.9,0.7,1.4,1.8,1.4,3c0,1.3-0.5,2.3-1.6,3.1c-1,0.8-2.4,1.2-4.2,1.2c-1.9,0-3.4-0.4-4.5-1.3
			s-1.6-1.9-1.5-3.1l0-0.1h0.7c0.1,1.3,0.6,2.2,1.7,2.8c1,0.6,2.2,0.9,3.6,0.9c1.5,0,2.7-0.4,3.6-1C45.3,21.2,45.7,20.4,45.7,19.5z"
			/>
		<path class="st1" d="M51.1,23.5V1.6h7.2c2.3,0,4.1,0.5,5.4,1.5c1.3,1,1.9,2.5,1.9,4.4c0,0.9-0.3,1.8-0.9,2.5s-1.4,1.3-2.3,1.7
			c1.4,0.2,2.6,0.8,3.4,1.9c0.8,1,1.3,2.3,1.3,3.7c0,2-0.7,3.5-2,4.6c-1.3,1.1-3.1,1.6-5.3,1.6H51.1z M54,10.9h4.8
			c1.1,0,2-0.3,2.7-0.9c0.7-0.6,1-1.4,1-2.5c0-1.2-0.4-2.1-1.1-2.7c-0.8-0.6-1.8-0.9-3.3-0.9H54L54,10.9L54,10.9z M54,13.2v8h5.7
			c1.4,0,2.4-0.3,3.2-1s1.1-1.6,1.1-2.8c0-1.2-0.4-2.2-1.2-2.9c-0.8-0.7-1.8-1.1-3.1-1.2h-0.2C59.6,13.2,54,13.2,54,13.2z"/>
		<path class="st2" d="M86.3,16.5L86.3,16.5c0.1,2.1-0.7,3.9-2.1,5.3s-3.4,2.1-5.9,2.1c-2.5,0-4.5-0.9-6.1-2.6s-2.3-4-2.3-6.7v-3.9
			c0-2.7,0.8-4.9,2.3-6.7c1.6-1.8,3.6-2.6,6.1-2.6c2.5,0,4.4,0.7,5.9,2s2.2,3.1,2.1,5.3l0,0.1h-2.8c0-1.5-0.4-2.8-1.4-3.7
			C81.2,4,80,3.6,78.3,3.6c-1.7,0-3,0.7-4,2c-1,1.3-1.5,3-1.5,5v3.9c0,2,0.5,3.7,1.5,5s2.3,2,4,2s2.9-0.4,3.8-1.3
			c0.9-0.9,1.4-2.1,1.4-3.7L86.3,16.5L86.3,16.5z"/>
		<path class="st3" d="M102.5,13.8h-9.3v9.7h-3V1.6H104v2.3H93.2v7.6h9.3V13.8z"/>
	</g>
</g>
</svg>
