<?xml version="1.0" encoding="utf-8"?>
<!-- Generator: Adobe Illustrator 23.0.1, SVG Export Plug-In . SVG Version: 6.00 Build 0)  -->
<svg version="1.1" id="Layer_1" xmlns="http://www.w3.org/2000/svg" xmlns:xlink="http://www.w3.org/1999/xlink" x="0px" y="0px"
	 viewBox="0 0 280.47 352.57" style="enable-background:new 0 0 280.47 352.57;" xml:space="preserve">
<style type="text/css">
	.st0{fill:none;}
	.st1{fill:#A2348A;}
	.st2{fill:#E31E2D;}
	.st3{fill:#04529F;}
	.st4{fill:#FFFFFF;}
	.st5{fill:#EC2229;}
	.st6{fill:#A3358D;}
	.st7{fill:#03529D;}
</style>
<g>
	<g>
		<path class="st0" d="M158.28,199.76c-2.55,0-5.14-0.65-7.5-2.02c-7.17-4.15-9.61-13.33-5.46-20.5l38.73-66.89
			c0.16-0.3,0.33-0.6,0.51-0.89c5.08-8.21,7.77-17.68,7.77-27.37c0-28.72-23.37-52.09-52.09-52.09c-28.72,0-52.09,23.37-52.09,52.09
			c0,6.38,1.2,12.67,3.45,18.58l70.44,0.09c8.28,0.01,14.99,6.74,14.98,15.02c-0.01,8.28-6.72,14.98-15,14.98c-0.01,0-0.01,0-0.02,0
			l-77.28-0.1c-0.34,0.01-0.69,0.01-1.03,0c-9.65-0.3-19.19,2.11-27.59,6.95c-12.05,6.96-20.67,18.19-24.27,31.63
			s-1.75,27.48,5.2,39.53c14.36,24.88,46.29,33.43,71.16,19.07c5.52-3.19,10.38-7.37,14.36-12.28L87.4,154.53
			c-4.13-7.18-1.66-16.35,5.52-20.48c7.18-4.13,16.35-1.66,20.48,5.52l38.57,67.01c0.18,0.28,0.34,0.57,0.5,0.87
			c4.57,8.51,11.42,15.57,19.82,20.42c24.88,14.36,56.8,5.81,71.16-19.07c6.96-12.05,8.81-26.09,5.2-39.53s-12.22-24.67-24.27-31.63
			c-5.52-3.19-11.57-5.3-17.81-6.3l-35.3,60.95C168.49,197.07,163.46,199.76,158.28,199.76z"/>
		<path class="st1" d="M83.94,100.66c0.07,0,0.14,0,0.21,0l7.44,0.01c-2.25-5.9-3.45-12.2-3.45-18.58
			c0-28.72,23.37-52.09,52.09-52.09c28.72,0,52.09,23.37,52.09,52.09c0-8.28,6.72-15,15-15s15,6.72,15,15
			C222.33,36.83,185.5,0,140.23,0C94.97,0,58.14,36.83,58.14,82.09c0,7.23,0.96,14.41,2.82,21.33
			C68.43,101.43,76.16,100.49,83.94,100.66z"/>
		<path class="st2" d="M126.34,222.17c-0.03-0.05-0.06-0.1-0.09-0.16l-3.71-6.45c-3.99,4.9-8.84,9.09-14.36,12.28
			c-24.88,14.36-56.8,5.81-71.16-19.07c-6.96-12.05-8.81-26.09-5.2-39.53s12.22-24.67,24.27-31.63c8.39-4.85,17.94-7.25,27.59-6.95
			c0.35,0.01,0.69,0.01,1.03,0l77.28,0.1c0.01,0,0.01,0,0.02,0c8.28,0,14.99-6.7,15-14.98c0.01-8.28-6.7-15.01-14.98-15.02
			l-70.44-0.09c0.96,2.51,2.08,4.95,3.42,7.28c4.12,7.19,1.64,16.35-5.55,20.47c-7.19,4.12-16.35,1.64-20.47-5.55
			c-3.51-6.12-6.2-12.67-8.03-19.46c-6.92,1.85-13.61,4.59-19.88,8.21C22.09,122.6,8.51,140.31,2.83,161.49s-2.76,43.3,8.2,62.29
			c15.19,26.31,42.84,41.03,71.23,41.03c13.92,0,28.01-3.54,40.91-10.98c6.26-3.61,11.99-8.03,17.06-13.11
			C134.77,235.25,130.08,229.02,126.34,222.17z M154.75,105.68c1.75-1.01,4-0.41,5.01,1.34c1.01,1.75,0.41,4-1.34,5.01
			c-1.75,1.01-4,0.41-5.01-1.34C152.39,108.93,152.99,106.69,154.75,105.68z"/>
		<path class="st2" d="M89.46,128.43c7.19-4.12,9.67-13.29,5.55-20.47c-1.34-2.34-2.47-4.78-3.42-7.28l-7.44-0.01
			c-0.07,0-0.14,0-0.21,0c-7.78-0.17-15.51,0.77-22.98,2.76c1.82,6.79,4.51,13.33,8.03,19.46
			C73.11,130.07,82.28,132.55,89.46,128.43z"/>
		<path class="st3" d="M277.63,161.49c-5.68-21.18-19.26-38.88-38.25-49.85c-6.26-3.61-12.95-6.37-19.88-8.22
			c-2.01,7.46-5.05,14.63-9.1,21.29c-0.03,0.06-0.07,0.12-0.1,0.18l-3.73,6.43c6.24,1,12.29,3.11,17.81,6.3
			c12.05,6.96,20.67,18.19,24.27,31.63s1.75,27.48-5.2,39.53c-14.36,24.88-46.28,33.43-71.16,19.07
			c-8.4-4.85-15.25-11.91-19.82-20.42c-0.16-0.29-0.33-0.58-0.5-0.87l-38.57-67.01c-4.13-7.18-13.3-9.65-20.48-5.52
			c-7.18,4.13-9.65,13.3-5.52,20.48l35.14,61.05c1.69-2.08,3.24-4.28,4.6-6.61c4.16-7.16,13.34-9.59,20.51-5.43
			c7.16,4.16,9.59,13.34,5.43,20.51c-3.55,6.1-7.87,11.71-12.84,16.68c5.06,5.07,10.78,9.48,17.06,13.11
			c12.9,7.45,26.99,10.98,40.91,10.98c28.39,0,56.05-14.73,71.23-41.03C280.4,204.79,283.31,182.67,277.63,161.49z M100.31,157.03
			c-1.01,1.75-3.26,2.36-5.01,1.34c-1.75-1.01-2.36-3.26-1.34-5.01s3.26-2.36,5.01-1.34C100.72,153.03,101.32,155.28,100.31,157.03z
			"/>
		<path class="st3" d="M147.64,203.53c-7.16-4.16-16.34-1.73-20.51,5.43c-1.35,2.33-2.9,4.53-4.6,6.61l3.71,6.45
			c0.03,0.05,0.06,0.1,0.09,0.16c3.74,6.84,8.43,13.08,13.89,18.55c4.97-4.97,9.29-10.58,12.84-16.68
			C157.24,216.88,154.8,207.7,147.64,203.53z"/>
		<path class="st1" d="M219.5,103.42c1.38-5.12,2.27-10.37,2.63-15.7C221.77,93.05,220.88,98.3,219.5,103.42
			C219.5,103.42,219.5,103.42,219.5,103.42z"/>
		<path class="st1" d="M207.33,67.09c-8.28,0-15,6.72-15,15c0,9.69-2.69,19.16-7.77,27.37c-0.18,0.29-0.35,0.59-0.51,0.89
			l-38.73,66.89c-4.15,7.17-1.71,16.35,5.46,20.5c2.37,1.37,4.95,2.02,7.5,2.02c5.18,0,10.21-2.68,12.99-7.49l35.3-60.95
			c-2.65-0.42-5.33-0.67-8.02-0.68c-8.28-0.02-14.98-6.76-14.96-15.04c0.02-8.27,6.73-14.96,15-14.96c0.01,0,0.03,0,0.04,0
			c7.06,0.02,14.08,0.96,20.87,2.78c1.38-5.12,2.27-10.37,2.63-15.7c0.13-1.87,0.19-3.75,0.19-5.63
			C222.33,73.81,215.61,67.09,207.33,67.09z M166.99,187.18c-2.03,0-3.67-1.64-3.67-3.67c0-2.03,1.64-3.67,3.67-3.67
			c2.03,0,3.67,1.64,3.67,3.67C170.66,185.54,169.02,187.18,166.99,187.18z"/>
		<path class="st1" d="M210.4,124.71c-0.03,0.06-0.07,0.12-0.1,0.18C210.33,124.82,210.37,124.77,210.4,124.71
			c4.05-6.66,7.1-13.83,9.1-21.29c0,0,0,0,0,0C217.5,110.88,214.45,118.05,210.4,124.71z"/>
		<path class="st1" d="M219.5,103.42c-6.79-1.81-13.81-2.76-20.87-2.78c-0.01,0-0.03,0-0.04,0c-8.26,0-14.98,6.69-15,14.96
			c-0.02,8.28,6.67,15.02,14.96,15.04c2.69,0.01,5.37,0.25,8.02,0.68l3.73-6.43c0.03-0.06,0.07-0.12,0.1-0.18
			C214.45,118.05,217.5,110.88,219.5,103.42z"/>
	</g>
	<g>
		<g>
			<path class="st4" d="M21.57,342.53l2.06,5.66h0.26l2.06-5.66l12.87-32.95h2.32l-16.47,41.96l0,0H22.6L6.39,309.58H8.7
				L21.57,342.53z"/>
			<path class="st4" d="M51.95,296.46h-2.06v-5.41h2.06V296.46z M51.95,351.54h-2.06v-41.96h2.06V351.54z"/>
			<path class="st4" d="M68.16,351.54H66.1v-60.49h2.06V351.54z"/>
			<path class="st4" d="M84.64,351.54h-2.06v-60.49h2.06V351.54z"/>
			<path class="st4" d="M124.02,341.24c0-2.32-1.03-4.12-2.83-6.18c-1.8-1.8-5.15-3.35-10.04-4.38c-4.89-1.03-8.49-2.32-10.81-4.12
				c-2.32-1.54-3.35-4.12-3.35-7.46c0-3.09,1.29-5.41,3.86-7.46c2.57-2.06,5.92-3.09,10.3-3.09c4.63,0,8.24,1.03,11.07,3.35
				c2.57,2.06,3.86,4.89,3.86,8.49v0.26h-1.8c0-2.83-1.29-5.15-3.35-6.95c-2.32-2.06-5.41-2.83-9.52-2.83
				c-3.86,0-6.95,0.77-9.01,2.57s-3.09,3.6-3.09,5.92s0.77,4.12,2.57,5.66c1.8,1.54,5.15,2.83,10.3,4.12
				c4.63,1.03,8.24,2.57,10.55,4.38s3.6,4.63,3.6,7.72c0,3.35-1.29,5.92-4.12,7.98c-2.57,2.06-6.18,3.09-10.81,3.09
				c-4.89,0-8.75-1.03-11.58-3.35c-2.83-2.32-4.12-4.89-3.86-7.98v-0.26h1.8c0.26,3.35,1.54,5.66,4.38,7.21
				c2.57,1.54,5.66,2.32,9.27,2.32c3.86,0,6.95-1.03,9.27-2.57C122.99,345.62,124.02,343.56,124.02,341.24z"/>
			<path class="st5" d="M137.92,351.54v-56.37h18.53c5.92,0,10.55,1.29,13.9,3.86s4.89,6.43,4.89,11.33c0,2.32-0.77,4.63-2.32,6.43
				s-3.6,3.35-5.92,4.38c3.6,0.51,6.69,2.06,8.75,4.89c2.06,2.57,3.35,5.92,3.35,9.52c0,5.15-1.8,9.01-5.15,11.84
				c-3.35,2.83-7.98,4.12-13.64,4.12H137.92z M145.38,319.11h12.36c2.83,0,5.15-0.77,6.95-2.32c1.8-1.54,2.57-3.6,2.57-6.43
				c0-3.09-1.03-5.41-2.83-6.95c-2.06-1.54-4.63-2.32-8.49-2.32h-10.55V319.11L145.38,319.11z M145.38,325.03v20.59h14.67
				c3.6,0,6.18-0.77,8.24-2.57c2.06-1.8,2.83-4.12,2.83-7.21s-1.03-5.66-3.09-7.46c-2.06-1.8-4.63-2.83-7.98-3.09h-0.51
				C159.8,325.03,145.38,325.03,145.38,325.03z"/>
			<path class="st6" d="M228.52,333.52L228.52,333.52c0.26,5.41-1.8,10.04-5.41,13.64s-8.75,5.41-15.19,5.41s-11.58-2.32-15.7-6.69
				s-5.92-10.3-5.92-17.25v-10.04c0-6.95,2.06-12.61,5.92-17.25c4.12-4.63,9.27-6.69,15.7-6.69s11.33,1.8,15.19,5.15
				s5.66,7.98,5.41,13.64v0.26h-7.21c0-3.86-1.03-7.21-3.6-9.52c-2.32-2.83-5.41-3.86-9.78-3.86s-7.72,1.8-10.3,5.15
				c-2.57,3.35-3.86,7.72-3.86,12.87v10.04c0,5.15,1.29,9.52,3.86,12.87c2.57,3.35,5.92,5.15,10.3,5.15s7.46-1.03,9.78-3.35
				c2.32-2.32,3.6-5.41,3.6-9.52H228.52L228.52,333.52z"/>
			<path class="st7" d="M270.22,326.57h-23.94v24.97h-7.72v-56.37h35.52v5.92h-27.8v19.56h23.94V326.57z"/>
		</g>
	</g>
</g>
</svg>
