<?xml version="1.0" encoding="utf-8"?>
<!-- Generator: Adobe Illustrator 23.0.1, SVG Export Plug-In . SVG Version: 6.00 Build 0)  -->
<svg version="1.1" id="Layer_1" xmlns="http://www.w3.org/2000/svg" xmlns:xlink="http://www.w3.org/1999/xlink" x="0px" y="0px"
	 viewBox="0 0 72.25 90.82" style="enable-background:new 0 0 72.25 90.82;" xml:space="preserve">
<style type="text/css">
	.st0{fill:none;}
	.st1{fill:#A2348A;}
	.st2{fill:#E31E2D;}
	.st3{fill:#04529F;}
	.st4{fill:#FFFFFF;}
	.st5{fill:#EC2229;}
	.st6{fill:#A3358D;}
	.st7{fill:#03529D;}
</style>
<g>
	<g>
		<path class="st0" d="M40.77,51.46c-0.66,0-1.32-0.17-1.93-0.52c-1.85-1.07-2.48-3.43-1.41-5.28l9.98-17.23
			c0.04-0.08,0.08-0.15,0.13-0.23c1.31-2.12,2-4.55,2-7.05c0-7.4-6.02-13.42-13.42-13.42c-7.4,0-13.42,6.02-13.42,13.42
			c0,1.64,0.31,3.26,0.89,4.79l18.14,0.02c2.13,0,3.86,1.74,3.86,3.87c0,2.13-1.73,3.86-3.86,3.86c0,0,0,0-0.01,0l-19.91-0.03
			c-0.09,0-0.18,0-0.27,0c-2.49-0.08-4.94,0.54-7.11,1.79c-3.1,1.79-5.33,4.69-6.25,8.15c-0.93,3.46-0.45,7.08,1.34,10.18
			c3.7,6.41,11.92,8.61,18.33,4.91c1.42-0.82,2.67-1.9,3.7-3.16l-9.05-15.73c-1.06-1.85-0.43-4.21,1.42-5.28
			c1.85-1.07,4.21-0.43,5.28,1.42l9.94,17.26c0.05,0.07,0.09,0.15,0.13,0.22c1.18,2.19,2.94,4.01,5.11,5.26
			c6.41,3.7,14.63,1.5,18.33-4.91c1.79-3.1,2.27-6.72,1.34-10.18c-0.93-3.46-3.15-6.36-6.25-8.15c-1.42-0.82-2.98-1.37-4.59-1.62
			l-9.09,15.7C43.4,50.77,42.11,51.46,40.77,51.46z"/>
		<path class="st1" d="M21.62,25.93c0.02,0,0.04,0,0.05,0l1.92,0c-0.58-1.52-0.89-3.14-0.89-4.79c0-7.4,6.02-13.42,13.42-13.42
			c7.4,0,13.42,6.02,13.42,13.42c0-2.13,1.73-3.86,3.86-3.86s3.86,1.73,3.86,3.86C57.27,9.49,47.78,0,36.12,0
			C24.46,0,14.98,9.49,14.98,21.15c0,1.86,0.25,3.71,0.73,5.5C17.63,26.13,19.62,25.89,21.62,25.93z"/>
		<path class="st2" d="M32.55,57.23c-0.01-0.01-0.02-0.03-0.02-0.04l-0.96-1.66c-1.03,1.26-2.28,2.34-3.7,3.16
			c-6.41,3.7-14.63,1.5-18.33-4.91c-1.79-3.1-2.27-6.72-1.34-10.18c0.93-3.46,3.15-6.36,6.25-8.15c2.16-1.25,4.62-1.87,7.11-1.79
			c0.09,0,0.18,0,0.27,0l19.91,0.03c0,0,0,0,0.01,0c2.13,0,3.86-1.73,3.86-3.86c0-2.13-1.72-3.87-3.86-3.87l-18.14-0.02
			c0.25,0.65,0.54,1.27,0.88,1.88c1.06,1.85,0.42,4.21-1.43,5.27c-1.85,1.06-4.21,0.42-5.27-1.43c-0.9-1.58-1.6-3.26-2.07-5.01
			c-1.78,0.48-3.51,1.18-5.12,2.12c-4.89,2.82-8.39,7.38-9.85,12.84S0.02,52.75,2.84,57.65c3.91,6.78,11.04,10.57,18.35,10.57
			c3.59,0,7.22-0.91,10.54-2.83c1.61-0.93,3.09-2.07,4.39-3.38C34.72,60.6,33.51,58.99,32.55,57.23z M39.86,27.22
			c0.45-0.26,1.03-0.11,1.29,0.35c0.26,0.45,0.11,1.03-0.35,1.29c-0.45,0.26-1.03,0.11-1.29-0.35
			C39.26,28.06,39.41,27.48,39.86,27.22z"/>
		<path class="st2" d="M23.05,33.08c1.85-1.06,2.49-3.42,1.43-5.27c-0.35-0.6-0.64-1.23-0.88-1.88l-1.92,0c-0.02,0-0.04,0-0.05,0
			c-2-0.04-4,0.2-5.92,0.71c0.47,1.75,1.16,3.43,2.07,5.01C18.83,33.51,21.19,34.15,23.05,33.08z"/>
		<path class="st3" d="M71.52,41.6c-1.46-5.46-4.96-10.02-9.85-12.84c-1.61-0.93-3.34-1.64-5.12-2.12c-0.52,1.92-1.3,3.77-2.35,5.48
			c-0.01,0.02-0.02,0.03-0.03,0.05l-0.96,1.66c1.61,0.26,3.17,0.8,4.59,1.62c3.1,1.79,5.32,4.69,6.25,8.15
			c0.93,3.46,0.45,7.08-1.34,10.18c-3.7,6.41-11.92,8.61-18.33,4.91c-2.16-1.25-3.93-3.07-5.11-5.26c-0.04-0.08-0.08-0.15-0.13-0.22
			l-9.94-17.26c-1.06-1.85-3.43-2.49-5.28-1.42c-1.85,1.06-2.49,3.43-1.42,5.28l9.05,15.73c0.44-0.54,0.84-1.1,1.18-1.7
			c1.07-1.85,3.44-2.47,5.28-1.4c1.84,1.07,2.47,3.44,1.4,5.28c-0.91,1.57-2.03,3.02-3.31,4.3c1.3,1.31,2.78,2.44,4.39,3.38
			c3.32,1.92,6.95,2.83,10.54,2.83c7.31,0,14.44-3.79,18.35-10.57C72.23,52.75,72.98,47.05,71.52,41.6z M25.84,40.45
			c-0.26,0.45-0.84,0.61-1.29,0.35c-0.45-0.26-0.61-0.84-0.35-1.29c0.26-0.45,0.84-0.61,1.29-0.35C25.94,39.42,26.1,40,25.84,40.45z
			"/>
		<path class="st3" d="M38.03,52.43c-1.84-1.07-4.21-0.45-5.28,1.4c-0.35,0.6-0.75,1.17-1.18,1.7l0.96,1.66
			c0.01,0.01,0.02,0.03,0.02,0.04c0.96,1.76,2.17,3.37,3.58,4.78c1.28-1.28,2.39-2.72,3.31-4.3C40.5,55.87,39.88,53.5,38.03,52.43z"
			/>
		<path class="st1" d="M56.54,26.64c0.35-1.32,0.58-2.67,0.68-4.04C57.13,23.97,56.9,25.32,56.54,26.64
			C56.54,26.64,56.54,26.64,56.54,26.64z"/>
		<path class="st1" d="M53.41,17.28c-2.13,0-3.86,1.73-3.86,3.86c0,2.5-0.69,4.94-2,7.05c-0.05,0.07-0.09,0.15-0.13,0.23
			l-9.98,17.23c-1.07,1.85-0.44,4.21,1.41,5.28c0.61,0.35,1.28,0.52,1.93,0.52c1.33,0,2.63-0.69,3.35-1.93l9.09-15.7
			c-0.68-0.11-1.37-0.17-2.07-0.17c-2.13-0.01-3.86-1.74-3.85-3.87c0.01-2.13,1.73-3.85,3.86-3.85c0,0,0.01,0,0.01,0
			c1.82,0,3.63,0.25,5.38,0.72c0.35-1.32,0.58-2.67,0.68-4.04c0.03-0.48,0.05-0.97,0.05-1.45C57.27,19.01,55.54,17.28,53.41,17.28z
			 M43.02,48.22c-0.52,0-0.95-0.42-0.95-0.95c0-0.52,0.42-0.95,0.95-0.95c0.52,0,0.95,0.42,0.95,0.95
			C43.96,47.79,43.54,48.22,43.02,48.22z"/>
		<path class="st1" d="M54.2,32.12c-0.01,0.02-0.02,0.03-0.03,0.05C54.18,32.15,54.19,32.14,54.2,32.12
			c1.04-1.71,1.83-3.56,2.35-5.48c0,0,0,0,0,0C56.03,28.56,55.24,30.41,54.2,32.12z"/>
		<path class="st1" d="M56.54,26.64c-1.75-0.47-3.56-0.71-5.38-0.72c0,0-0.01,0-0.01,0c-2.13,0-3.86,1.72-3.86,3.85
			c-0.01,2.13,1.72,3.87,3.85,3.87c0.69,0,1.38,0.06,2.07,0.17l0.96-1.66c0.01-0.02,0.02-0.03,0.03-0.05
			C55.24,30.41,56.03,28.56,56.54,26.64z"/>
	</g>
	<g>
		<g>
			<path class="st4" d="M5.56,88.24l0.53,1.46h0.07l0.53-1.46L10,79.75h0.6L6.35,90.56l0,0H5.82L1.65,79.75h0.6L5.56,88.24z"/>
			<path class="st4" d="M13.38,76.37h-0.53v-1.39h0.53V76.37z M13.38,90.56h-0.53V79.75h0.53V90.56z"/>
			<path class="st4" d="M17.56,90.56h-0.53V74.97h0.53V90.56z"/>
			<path class="st4" d="M21.8,90.56h-0.53V74.97h0.53V90.56z"/>
			<path class="st4" d="M31.95,87.9c0-0.6-0.27-1.06-0.73-1.59c-0.46-0.46-1.33-0.86-2.59-1.13c-1.26-0.27-2.19-0.6-2.78-1.06
				c-0.6-0.4-0.86-1.06-0.86-1.92c0-0.8,0.33-1.39,0.99-1.92c0.66-0.53,1.53-0.8,2.65-0.8c1.19,0,2.12,0.27,2.85,0.86
				c0.66,0.53,0.99,1.26,0.99,2.19v0.07h-0.46c0-0.73-0.33-1.33-0.86-1.79c-0.6-0.53-1.39-0.73-2.45-0.73
				c-0.99,0-1.79,0.2-2.32,0.66s-0.8,0.93-0.8,1.53c0,0.6,0.2,1.06,0.66,1.46s1.33,0.73,2.65,1.06c1.19,0.27,2.12,0.66,2.72,1.13
				c0.6,0.46,0.93,1.19,0.93,1.99c0,0.86-0.33,1.53-1.06,2.06c-0.66,0.53-1.59,0.8-2.78,0.8c-1.26,0-2.25-0.27-2.98-0.86
				s-1.06-1.26-0.99-2.06v-0.07h0.46c0.07,0.86,0.4,1.46,1.13,1.86c0.66,0.4,1.46,0.6,2.39,0.6c0.99,0,1.79-0.27,2.39-0.66
				C31.68,89.03,31.95,88.5,31.95,87.9z"/>
			<path class="st5" d="M35.53,90.56V76.04h4.77c1.53,0,2.72,0.33,3.58,0.99c0.86,0.66,1.26,1.66,1.26,2.92c0,0.6-0.2,1.19-0.6,1.66
				c-0.4,0.46-0.93,0.86-1.53,1.13c0.93,0.13,1.72,0.53,2.25,1.26c0.53,0.66,0.86,1.53,0.86,2.45c0,1.33-0.46,2.32-1.33,3.05
				c-0.86,0.73-2.06,1.06-3.51,1.06H35.53z M37.45,82.2h3.18c0.73,0,1.33-0.2,1.79-0.6c0.46-0.4,0.66-0.93,0.66-1.66
				c0-0.8-0.27-1.39-0.73-1.79c-0.53-0.4-1.19-0.6-2.19-0.6h-2.72V82.2L37.45,82.2z M37.45,83.73v5.3h3.78
				c0.93,0,1.59-0.2,2.12-0.66s0.73-1.06,0.73-1.86s-0.27-1.46-0.8-1.92c-0.53-0.46-1.19-0.73-2.06-0.8H41.1
				C41.16,83.73,37.45,83.73,37.45,83.73z"/>
			<path class="st6" d="M58.87,85.91L58.87,85.91c0.07,1.39-0.46,2.59-1.39,3.51c-0.93,0.93-2.25,1.39-3.91,1.39
				s-2.98-0.6-4.04-1.72s-1.53-2.65-1.53-4.44v-2.59c0-1.79,0.53-3.25,1.53-4.44c1.06-1.19,2.39-1.72,4.04-1.72s2.92,0.46,3.91,1.33
				c0.99,0.86,1.46,2.06,1.39,3.51v0.07h-1.86c0-0.99-0.27-1.86-0.93-2.45c-0.6-0.73-1.39-0.99-2.52-0.99
				c-1.13,0-1.99,0.46-2.65,1.33c-0.66,0.86-0.99,1.99-0.99,3.32v2.59c0,1.33,0.33,2.45,0.99,3.32c0.66,0.86,1.53,1.33,2.65,1.33
				c1.13,0,1.92-0.27,2.52-0.86s0.93-1.39,0.93-2.45H58.87L58.87,85.91z"/>
			<path class="st7" d="M69.61,84.12h-6.17v6.43h-1.99V76.04h9.15v1.53h-7.16v5.04h6.17V84.12z"/>
		</g>
	</g>
</g>
</svg>
