<?xml version="1.0" encoding="utf-8"?>
<!-- Generator: Adobe Illustrator 23.0.1, SVG Export Plug-In . SVG Version: 6.00 Build 0)  -->
<svg version="1.1" id="Layer_1" xmlns="http://www.w3.org/2000/svg" xmlns:xlink="http://www.w3.org/1999/xlink" x="0px" y="0px"
	 viewBox="0 0 134.39 168.93" style="enable-background:new 0 0 134.39 168.93;" xml:space="preserve">
<style type="text/css">
	.st0{fill:#E31E2D;}
	.st1{fill:#A2348A;}
	.st2{fill:#FFFFFF;}
	.st3{fill:#EC2229;}
	.st4{fill:#A3358D;}
	.st5{fill:#03529D;}
	.st6{fill:#04529F;}
</style>
<g>
	<g>
		<path class="st0" d="M77.63,48.28l-37.31-0.05c-0.03,0-0.07,0-0.1,0c-7.18-0.16-14.29,1.65-20.54,5.26
			c-9.1,5.25-15.61,13.74-18.33,23.88s-1.32,20.75,3.93,29.85c7.28,12.61,20.53,19.66,34.13,19.66c6.67,0,13.42-1.7,19.6-5.26
			c3-1.73,5.75-3.85,8.17-6.28c-2.62-2.62-4.86-5.61-6.66-8.89c-0.01-0.02-0.03-0.05-0.04-0.07l-1.78-3.09
			c-1.91,2.35-4.24,4.35-6.88,5.88c-11.92,6.88-27.22,2.78-34.1-9.14c-3.33-5.77-4.22-12.5-2.49-18.94s5.86-11.82,11.63-15.16
			c4.02-2.32,8.59-3.48,13.22-3.33c0.17,0.01,0.33,0,0.5,0l37.03,0.05c0,0,0.01,0,0.01,0c3.97,0,7.18-3.21,7.19-7.18
			C84.82,51.51,81.6,48.29,77.63,48.28z M75.91,53.68c-0.84,0.49-1.92,0.2-2.4-0.64c-0.49-0.84-0.2-1.92,0.64-2.4
			c0.84-0.49,1.92-0.2,2.4,0.64C77.03,52.12,76.75,53.19,75.91,53.68z"/>
	</g>
	<path class="st1" d="M67.19,0C45.5,0,27.86,17.65,27.86,39.34c0,3.46,0.46,6.9,1.35,10.22c3.58-0.95,7.28-1.41,11.01-1.32
		c0.03,0,0.07,0,0.1,0l3.56,0c-1.08-2.83-1.65-5.85-1.65-8.9c0-13.76,11.2-24.96,24.96-24.96c13.76,0,24.96,11.2,24.96,24.96
		c0,4.65-1.29,9.18-3.72,13.11c-0.09,0.14-0.17,0.28-0.24,0.43L69.63,84.92c-1.99,3.44-0.82,7.83,2.62,9.82
		c1.13,0.66,2.37,0.97,3.6,0.97c2.48,0,4.89-1.29,6.23-3.59l18.7-32.29c0.02-0.03,0.03-0.06,0.05-0.09
		c3.74-6.15,5.71-13.2,5.71-20.42C106.53,17.65,88.88,0,67.19,0z M80.01,89.69c-0.61,0-1.14-0.31-1.46-0.77
		c-0.13-0.19-0.22-0.4-0.26-0.63c-0.02-0.11-0.04-0.23-0.04-0.35c0-0.97,0.79-1.76,1.76-1.76c0.12,0,0.24,0.01,0.35,0.04
		c0.23,0.05,0.44,0.14,0.63,0.26c0.09,0.06,0.18,0.14,0.26,0.21c0.32,0.32,0.51,0.76,0.51,1.24C81.77,88.9,80.98,89.69,80.01,89.69z
		"/>
	<g>
		<g>
			<path class="st2" d="M10.34,164.12l0.99,2.71h0.12l0.99-2.71l6.17-15.79h1.11l-7.89,20.1l0,0h-0.99l-7.77-20.1h1.11L10.34,164.12
				z"/>
			<path class="st2" d="M24.89,142.05H23.9v-2.59h0.99V142.05z M24.89,168.44H23.9v-20.1h0.99V168.44z"/>
			<path class="st2" d="M32.66,168.44h-0.99v-28.98h0.99V168.44z"/>
			<path class="st2" d="M40.55,168.44h-0.99v-28.98h0.99V168.44z"/>
			<path class="st2" d="M59.42,163.51c0-1.11-0.49-1.97-1.36-2.96c-0.86-0.86-2.47-1.6-4.81-2.1c-2.34-0.49-4.07-1.11-5.18-1.97
				c-1.11-0.74-1.6-1.97-1.6-3.58c0-1.48,0.62-2.59,1.85-3.58c1.23-0.99,2.84-1.48,4.93-1.48c2.22,0,3.95,0.49,5.3,1.6
				c1.23,0.99,1.85,2.34,1.85,4.07v0.12h-0.86c0-1.36-0.62-2.47-1.6-3.33c-1.11-0.99-2.59-1.36-4.56-1.36
				c-1.85,0-3.33,0.37-4.32,1.23s-1.48,1.73-1.48,2.84c0,1.11,0.37,1.97,1.23,2.71c0.86,0.74,2.47,1.36,4.93,1.97
				c2.22,0.49,3.95,1.23,5.06,2.1c1.11,0.86,1.73,2.22,1.73,3.7c0,1.6-0.62,2.84-1.97,3.82c-1.23,0.99-2.96,1.48-5.18,1.48
				c-2.34,0-4.19-0.49-5.55-1.6c-1.36-1.11-1.97-2.34-1.85-3.82v-0.12h0.86c0.12,1.6,0.74,2.71,2.1,3.45
				c1.23,0.74,2.71,1.11,4.44,1.11c1.85,0,3.33-0.49,4.44-1.23C58.93,165.6,59.42,164.62,59.42,163.51z"/>
			<path class="st3" d="M66.08,168.44v-27.01h8.88c2.84,0,5.06,0.62,6.66,1.85c1.6,1.23,2.34,3.08,2.34,5.43
				c0,1.11-0.37,2.22-1.11,3.08c-0.74,0.86-1.73,1.6-2.84,2.1c1.73,0.25,3.21,0.99,4.19,2.34c0.99,1.23,1.6,2.84,1.6,4.56
				c0,2.47-0.86,4.32-2.47,5.67c-1.6,1.36-3.82,1.97-6.54,1.97H66.08z M69.66,152.9h5.92c1.36,0,2.47-0.37,3.33-1.11
				c0.86-0.74,1.23-1.73,1.23-3.08c0-1.48-0.49-2.59-1.36-3.33c-0.99-0.74-2.22-1.11-4.07-1.11h-5.06V152.9L69.66,152.9z
				 M69.66,155.74v9.87h7.03c1.73,0,2.96-0.37,3.95-1.23c0.99-0.86,1.36-1.97,1.36-3.45c0-1.48-0.49-2.71-1.48-3.58
				c-0.99-0.86-2.22-1.36-3.82-1.48h-0.25C76.57,155.74,69.66,155.74,69.66,155.74z"/>
			<path class="st4" d="M109.5,159.81L109.5,159.81c0.12,2.59-0.86,4.81-2.59,6.54s-4.19,2.59-7.28,2.59
				c-3.08,0-5.55-1.11-7.52-3.21c-1.97-2.1-2.84-4.93-2.84-8.26v-4.81c0-3.33,0.99-6.04,2.84-8.26c1.97-2.22,4.44-3.21,7.52-3.21
				c3.08,0,5.43,0.86,7.28,2.47c1.85,1.6,2.71,3.82,2.59,6.54v0.12h-3.45c0-1.85-0.49-3.45-1.73-4.56
				c-1.11-1.36-2.59-1.85-4.69-1.85c-2.1,0-3.7,0.86-4.93,2.47c-1.23,1.6-1.85,3.7-1.85,6.17v4.81c0,2.47,0.62,4.56,1.85,6.17
				c1.23,1.6,2.84,2.47,4.93,2.47c2.1,0,3.58-0.49,4.69-1.6c1.11-1.11,1.73-2.59,1.73-4.56H109.5L109.5,159.81z"/>
			<path class="st5" d="M129.48,156.48h-11.47v11.96h-3.7v-27.01h17.02v2.84h-13.32v9.37h11.47V156.48z"/>
		</g>
	</g>
	<g>
		<path class="st6" d="M133.03,77.38c-2.72-10.15-9.23-18.63-18.33-23.88c-3-1.73-6.21-3.05-9.53-3.94
			c-0.96,3.57-2.42,7.01-4.36,10.2c-0.02,0.03-0.03,0.06-0.05,0.09l-1.79,3.08c2.99,0.48,5.89,1.49,8.53,3.02
			c5.77,3.33,9.9,8.72,11.63,15.16c1.73,6.44,0.84,13.17-2.49,18.94c-6.88,11.92-22.18,16.02-34.1,9.14
			c-4.02-2.32-7.31-5.71-9.5-9.78c-0.08-0.14-0.16-0.28-0.24-0.42L54.34,66.87c-1.98-3.44-6.37-4.62-9.81-2.64
			c-3.44,1.98-4.62,6.37-2.64,9.81l18.61,32.34c0.01,0.02,0.03,0.05,0.04,0.07c3.45,6.32,8.58,11.56,14.83,15.17
			c6.18,3.57,12.93,5.26,19.6,5.26c13.6,0,26.85-7.06,34.13-19.66C134.35,98.13,135.75,87.52,133.03,77.38z M48.06,75.24
			c-0.49,0.84-1.56,1.13-2.4,0.64c-0.84-0.49-1.13-1.56-0.64-2.4c0.49-0.84,1.56-1.13,2.4-0.64C48.26,73.33,48.55,74.4,48.06,75.24z
			"/>
	</g>
</g>
</svg>
