<?xml version="1.0" encoding="utf-8"?>
<!-- Generator: Adobe Illustrator 23.0.1, SVG Export Plug-In . SVG Version: 6.00 Build 0)  -->
<svg version="1.1" xmlns="http://www.w3.org/2000/svg" xmlns:xlink="http://www.w3.org/1999/xlink" x="0px" y="0px"
	 viewBox="0 0 103.99 23.82" style="enable-background:new 0 0 103.99 23.82;" xml:space="preserve">
<style type="text/css">
	.st0{fill:#ED1C26;}
	.st1{fill:#A1348C;}
	.st2{fill:#01509D;}
</style>
<g id="Layer_1">
	<g>
		<path d="M5.91,20.05l0.77,2.2h0.09l0.78-2.2L12.57,7.2h0.87L7.1,23.49l0.02,0.02H6.33L0,7.2h0.87L5.91,20.05z"/>
		<path d="M17.69,2.08h-0.81V0h0.81V2.08z M17.69,23.5h-0.81V7.2h0.81V23.5z"/>
		<path d="M24.05,23.5h-0.81V0h0.81V23.5z"/>
		<path d="M30.41,23.5h-0.81V0h0.81V23.5z"/>
		<path d="M45.74,19.51c0-0.86-0.37-1.65-1.11-2.36c-0.74-0.71-2.03-1.26-3.86-1.67c-1.94-0.41-3.34-0.94-4.21-1.59
			c-0.87-0.65-1.3-1.61-1.3-2.89c0-1.17,0.49-2.14,1.48-2.93s2.31-1.18,3.98-1.18c1.8,0,3.21,0.42,4.25,1.27
			c1.03,0.84,1.53,1.94,1.48,3.3l-0.03,0.09h-0.69c0-1.06-0.45-1.97-1.35-2.72c-0.9-0.75-2.12-1.12-3.65-1.12
			c-1.53,0-2.68,0.33-3.47,0.99c-0.78,0.66-1.17,1.42-1.17,2.28c0,0.85,0.33,1.58,0.99,2.19c0.66,0.6,1.98,1.13,3.95,1.58
			c1.82,0.42,3.2,1,4.14,1.73c0.94,0.73,1.41,1.75,1.41,3.05c0,1.28-0.52,2.31-1.57,3.1c-1.04,0.79-2.43,1.19-4.16,1.19
			c-1.9,0-3.39-0.42-4.47-1.27c-1.08-0.85-1.58-1.88-1.51-3.1l0.03-0.09h0.66c0.08,1.29,0.63,2.21,1.66,2.79
			c1.02,0.57,2.23,0.86,3.63,0.86c1.51,0,2.7-0.35,3.59-1.05C45.3,21.25,45.74,20.44,45.74,19.51z"/>
		<path class="st0" d="M51.08,23.5V1.57h7.16c2.29,0,4.08,0.5,5.38,1.48c1.3,0.99,1.94,2.47,1.94,4.45c0,0.94-0.29,1.79-0.87,2.54
			c-0.58,0.75-1.36,1.32-2.32,1.71c1.44,0.2,2.57,0.82,3.41,1.87c0.84,1.04,1.26,2.28,1.26,3.69c0,2.01-0.65,3.54-1.96,4.6
			c-1.31,1.06-3.07,1.59-5.3,1.59H51.08z M54.05,10.89h4.81c1.1,0,2-0.3,2.7-0.91c0.69-0.61,1.04-1.45,1.04-2.54
			c0-1.19-0.37-2.07-1.12-2.66C60.72,4.2,59.64,3.9,58.23,3.9h-4.19V10.89z M54.05,13.21v7.97h5.73c1.36,0,2.41-0.33,3.16-1
			c0.75-0.67,1.12-1.61,1.12-2.84c0-1.22-0.38-2.19-1.15-2.94c-0.76-0.74-1.79-1.14-3.09-1.19h-0.2H54.05z"/>
		<path class="st1" d="M86.35,16.48l0.03,0.09c0.04,2.06-0.68,3.78-2.17,5.17c-1.49,1.39-3.45,2.08-5.89,2.08
			c-2.48,0-4.5-0.88-6.06-2.64c-1.56-1.76-2.34-3.99-2.34-6.69v-3.9c0-2.7,0.78-4.93,2.34-6.7c1.56-1.76,3.58-2.64,6.06-2.64
			c2.48,0,4.45,0.66,5.92,1.98c1.47,1.32,2.18,3.07,2.14,5.25l-0.03,0.09H83.5c0-1.54-0.45-2.75-1.36-3.65
			c-0.9-0.89-2.18-1.34-3.83-1.34c-1.66,0-2.98,0.67-3.96,2c-0.98,1.34-1.48,2.99-1.48,4.97v3.93c0,2,0.49,3.67,1.48,5
			s2.31,2,3.96,2c1.65,0,2.92-0.44,3.83-1.33c0.9-0.89,1.36-2.12,1.36-3.68H86.35z"/>
		<path class="st2" d="M102.46,13.8h-9.25v9.7h-2.97V1.57h13.76V3.9H93.21v7.56h9.25V13.8z"/>
	</g>
</g>
<g id="Layer_2">
</g>
</svg>
